<?xml version="1.0" encoding="utf-8"?>
<!-- Generator: Adobe Illustrator 23.0.0, SVG Export Plug-In . SVG Version: 6.00 Build 0)  -->
<svg version="1.2" baseProfile="tiny" id="Ebene_1" xmlns="http://www.w3.org/2000/svg" xmlns:xlink="http://www.w3.org/1999/xlink"
	 x="0px" y="0px" viewBox="0 0 22.5 42.5" xml:space="preserve">
<g>
	<path fill="#FFFFFF" d="M11.3,31.5c5.7,0,10.2-4.6,10.2-10.2c0-5.7-4.6-10.2-10.2-10.2C5.6,11,1,15.6,1,21.2
		C1,26.9,5.6,31.5,11.3,31.5"/>
</g>
<g>
	<path d="M11.2,32.5C5,32.5,0,27.5,0,21.2S5,10,11.2,10s11.2,5,11.2,11.2S17.5,32.5,11.2,32.5z M11.2,12C6.1,12,2,16.1,2,21.2
		s4.1,9.2,9.2,9.2s9.2-4.1,9.2-9.2S16.4,12,11.2,12z"/>
</g>
</svg>
