<?xml version="1.0" encoding="utf-8"?>
<!-- Generator: Adobe Illustrator 23.0.0, SVG Export Plug-In . SVG Version: 6.00 Build 0)  -->
<svg version="1.2" baseProfile="tiny" id="Ebene_1" xmlns="http://www.w3.org/2000/svg" xmlns:xlink="http://www.w3.org/1999/xlink"
	 x="0px" y="0px" viewBox="0 0 42.5 42.5" xml:space="preserve">
<g>
	<g>
		<path d="M21.3,41.5c11.2,0,20.2-9.1,20.2-20.2C41.5,10.1,32.4,1,21.3,1C10.1,1,1,10.1,1,21.2C1,32.4,10.1,41.5,21.3,41.5"/>
	</g>
	<g>
		<path d="M21.2,42.5C9.5,42.5,0,33,0,21.2S9.5,0,21.2,0s21.2,9.5,21.2,21.2S33,42.5,21.2,42.5z M21.2,2C10.6,2,2,10.6,2,21.2
			s8.6,19.2,19.2,19.2s19.2-8.6,19.2-19.2S31.9,2,21.2,2z"/>
	</g>
</g>
</svg>
