<?xml version="1.0" encoding="utf-8"?>
<!-- Generator: Adobe Illustrator 23.0.0, SVG Export Plug-In . SVG Version: 6.00 Build 0)  -->
<svg version="1.2" baseProfile="tiny" id="Ebene_1" xmlns="http://www.w3.org/2000/svg" xmlns:xlink="http://www.w3.org/1999/xlink"
	 x="0px" y="0px" viewBox="0 0 22.9 21.8" xml:space="preserve">
<g>
	<g>
		<polygon fill="#FFFFFF" points="11.5,1.1 14.7,7.6 21.9,8.7 16.7,13.7 17.9,20.9 11.5,17.5 5,20.9 6.3,13.7 1.1,8.7 8.3,7.6 		"/>
	</g>
	<g>
		<path d="M18.5,21.8l-7.1-3.7l-7.1,3.7l1.4-7.9L0,8.3l7.9-1.2L11.5,0L15,7.2l7.9,1.2l-5.7,5.6L18.5,21.8z M2.1,9l4.7,4.5L5.7,20
			l5.8-3l5.8,3l-1.1-6.4L20.8,9l-6.4-0.9l-2.9-5.8L8.6,8.1L2.1,9z"/>
	</g>
</g>
</svg>
