<?xml version="1.0" encoding="utf-8"?>
<!-- Generator: Adobe Illustrator 23.0.0, SVG Export Plug-In . SVG Version: 6.00 Build 0)  -->
<svg version="1.2" baseProfile="tiny" id="Ebene_1" xmlns="http://www.w3.org/2000/svg" xmlns:xlink="http://www.w3.org/1999/xlink"
	 x="0px" y="0px" viewBox="0 0 162 22" xml:space="preserve">
<g>
	<g>
		<rect width="162" height="22"/>
	</g>
	<g>
		<path fill="#FFFFFF" d="M3.6,19V3.4h9.5v2H5.8v5h6.6v2H5.8V19H3.6z"/>
		<path fill="#FFFFFF" d="M16.6,2.9c0.8,0,1.5,0.7,1.5,1.5c0,0.8-0.7,1.5-1.5,1.5c-0.8,0-1.5-0.7-1.5-1.5
			C15.2,3.6,15.8,2.9,16.6,2.9z M15.6,19V8.4h2V19H15.6z"/>
		<path fill="#FFFFFF" d="M21,19V3.1h2.1V19H21z"/>
		<path fill="#FFFFFF" d="M29.3,8.4h2.3v1.9h-2.3v5.5c0,1,0.4,1.5,1.5,1.5c0.3,0,0.6,0,0.8-0.1v1.8c-0.2,0.1-0.7,0.2-1.4,0.2
			c-1.8,0-2.9-1.1-2.9-3v-5.8h-2V8.4h0.6c1.1,0,1.6-0.7,1.6-1.6V5.1h1.9V8.4z"/>
		<path fill="#FFFFFF" d="M43.2,16c-0.6,1.9-2.3,3.3-4.8,3.3c-2.8,0-5.3-2.1-5.3-5.7c0-3.3,2.4-5.6,5.1-5.6c3.3,0,5.1,2.2,5.1,5.5
			c0,0.3,0,0.5,0,0.7h-8c0,1.9,1.4,3.2,3.2,3.2c1.7,0,2.6-0.9,3-2.1L43.2,16z M41.2,12.6c0-1.5-1-2.7-2.9-2.7
			c-1.7,0-2.8,1.3-2.9,2.7H41.2z"/>
		<path fill="#FFFFFF" d="M51.8,10.5c-0.3,0-0.6-0.1-0.9-0.1c-1.7,0-2.9,0.9-2.9,3.3V19H46V8.4h2v1.8c0.8-1.6,2.1-2,3.2-2
			c0.3,0,0.6,0,0.7,0.1V10.5z"/>
		<path fill="#FFFFFF" d="M62.5,12.9l2.9-0.4c0.6-0.1,0.8-0.4,0.8-0.8c0-1-0.7-1.9-2.3-1.9c-1.5,0-2.3,0.9-2.4,2.1l-2-0.5
			c0.2-2,2-3.4,4.3-3.4c3.2,0,4.4,1.8,4.4,3.9v5.3c0,0.9,0.1,1.5,0.1,1.7h-2c0-0.3-0.1-0.7-0.1-1.4c-0.5,0.7-1.5,1.8-3.4,1.8
			c-2.2,0-3.5-1.5-3.5-3.2C59.3,14.3,60.7,13.2,62.5,12.9z M66.2,14.5V14L63,14.5c-0.9,0.1-1.5,0.6-1.5,1.6c0,0.8,0.7,1.5,1.7,1.5
			C64.8,17.6,66.2,16.8,66.2,14.5z"/>
		<path fill="#FFFFFF" d="M73.5,19h-2.1V8.4h2v1.5c0.8-1.3,2-1.8,3.3-1.8c2.5,0,3.8,1.8,3.8,4.2V19h-2.1v-6.4c0-1.5-0.6-2.7-2.5-2.7
			c-1.6,0-2.5,1.3-2.5,2.9V19z"/>
		<path fill="#FFFFFF" d="M91.6,8.4l2.8,8l2.3-8h2.2L95.5,19h-2.1l-2.8-8.1L87.8,19h-2.2L82.1,8.4h2.3l2.4,8l2.8-8H91.6z"/>
		<path fill="#FFFFFF" d="M110,16c-0.6,1.9-2.3,3.3-4.8,3.3c-2.8,0-5.3-2.1-5.3-5.7c0-3.3,2.4-5.6,5.1-5.6c3.3,0,5.1,2.2,5.1,5.5
			c0,0.3,0,0.5,0,0.7h-8c0,1.9,1.4,3.2,3.2,3.2c1.7,0,2.6-0.9,3-2.1L110,16z M107.9,12.6c0-1.5-1-2.7-2.9-2.7
			c-1.7,0-2.8,1.3-2.9,2.7H107.9z"/>
		<path fill="#FFFFFF" d="M114.8,19h-2.1V8.4h2v1.5c0.8-1.3,2-1.8,3.3-1.8c2.5,0,3.8,1.8,3.8,4.2V19h-2.1v-6.4
			c0-1.5-0.6-2.7-2.5-2.7c-1.6,0-2.5,1.3-2.5,2.9V19z"/>
		<path fill="#FFFFFF" d="M132.6,17.4c-0.5,1-1.6,1.9-3.3,1.9c-3.1,0-5-2.5-5-5.6c0-3,2-5.5,5-5.5c1.9,0,2.9,0.9,3.2,1.8V3.1h2v14
			c0,1,0.1,1.8,0.1,2h-2c0-0.2-0.1-0.8-0.1-1.4V17.4z M129.5,17.5c1.9,0,3.1-1.7,3.1-3.8c0-2.2-1.1-3.7-3-3.7
			c-1.9,0-3.1,1.5-3.1,3.7C126.4,15.9,127.5,17.5,129.5,17.5z"/>
		<path fill="#FFFFFF" d="M147.2,16c-0.6,1.9-2.3,3.3-4.8,3.3c-2.8,0-5.3-2.1-5.3-5.7c0-3.3,2.4-5.6,5.1-5.6c3.3,0,5.1,2.2,5.1,5.5
			c0,0.3,0,0.5,0,0.7h-8c0,1.9,1.4,3.2,3.2,3.2c1.7,0,2.6-0.9,3-2.1L147.2,16z M145.1,12.6c0-1.5-1-2.7-2.9-2.7
			c-1.7,0-2.8,1.3-2.9,2.7H145.1z"/>
		<path fill="#FFFFFF" d="M152,19H150V8.4h2v1.5c0.8-1.3,2-1.8,3.3-1.8c2.5,0,3.8,1.8,3.8,4.2V19H157v-6.4c0-1.5-0.6-2.7-2.5-2.7
			c-1.6,0-2.5,1.3-2.5,2.9V19z"/>
	</g>
</g>
</svg>
