<?xml version="1.0" encoding="utf-8"?>
<!-- Generator: Adobe Illustrator 23.0.0, SVG Export Plug-In . SVG Version: 6.00 Build 0)  -->
<svg version="1.2" baseProfile="tiny" id="Ebene_1" xmlns="http://www.w3.org/2000/svg" xmlns:xlink="http://www.w3.org/1999/xlink"
	 x="0px" y="0px" viewBox="0 0 22.5 22.5" xml:space="preserve">
<g>
	<path d="M11.3,21.5c5.7,0,10.2-4.6,10.2-10.2C21.5,5.6,16.9,1,11.3,1C5.6,1,1,5.6,1,11.2C1,16.9,5.6,21.5,11.3,21.5"/>
	<g>
		<path d="M11.2,22.5C5,22.5,0,17.5,0,11.2S5,0,11.2,0s11.2,5,11.2,11.2S17.5,22.5,11.2,22.5z M11.2,2C6.1,2,2,6.1,2,11.2
			s4.1,9.2,9.2,9.2s9.2-4.1,9.2-9.2S16.4,2,11.2,2z"/>
	</g>
</g>
</svg>
