<?xml version="1.0" encoding="utf-8"?>
<!-- Generator: Adobe Illustrator 23.0.0, SVG Export Plug-In . SVG Version: 6.00 Build 0)  -->
<svg version="1.2" baseProfile="tiny" id="Ebene_1" xmlns="http://www.w3.org/2000/svg" xmlns:xlink="http://www.w3.org/1999/xlink"
	 x="0px" y="0px" viewBox="0 0 179.9 22.5" xml:space="preserve">
<g>
	<g>
		<rect x="11.8" y="9.7" fill="#FFFFFF" width="156.4" height="3"/>
	</g>
	<g>
		<path d="M168.7,13.2H11.2v-4h157.4V13.2z M12.2,12.2h155.4v-2H12.2V12.2z"/>
	</g>
	<g>
		<path d="M11.3,21.5c5.7,0,10.2-4.6,10.2-10.2C21.5,5.6,16.9,1,11.3,1C5.6,1,1,5.6,1,11.2C1,16.9,5.6,21.5,11.3,21.5"/>
	</g>
	<g>
		<path d="M11.2,22.5C5,22.5,0,17.5,0,11.2S5,0,11.2,0s11.2,5,11.2,11.2S17.5,22.5,11.2,22.5z M11.2,2C6.1,2,2,6.1,2,11.2
			s4.1,9.2,9.2,9.2s9.2-4.1,9.2-9.2S16.4,2,11.2,2z"/>
	</g>
	<g>
		<path d="M168.7,21.5c5.7,0,10.2-4.6,10.2-10.2c0-5.7-4.6-10.2-10.2-10.2c-5.7,0-10.2,4.6-10.2,10.2
			C158.4,16.9,163,21.5,168.7,21.5"/>
	</g>
	<g>
		<path d="M168.7,22.5c-6.2,0-11.2-5-11.2-11.2S162.4,0,168.7,0s11.2,5,11.2,11.2S174.9,22.5,168.7,22.5z M168.7,2
			c-5.1,0-9.2,4.1-9.2,9.2s4.1,9.2,9.2,9.2s9.2-4.1,9.2-9.2S173.8,2,168.7,2z"/>
	</g>
</g>
</svg>
