<?xml version="1.0" encoding="utf-8"?>
<!-- Generator: Adobe Illustrator 23.0.0, SVG Export Plug-In . SVG Version: 6.00 Build 0)  -->
<svg version="1.2" baseProfile="tiny" id="Ebene_1" xmlns="http://www.w3.org/2000/svg" xmlns:xlink="http://www.w3.org/1999/xlink"
	 x="0px" y="0px" viewBox="0 0 182.9 42.5" xml:space="preserve">
<g>
	<path d="M0.9,16.2V0.6h5.6c4.4,0,7.7,2.9,7.7,7.8s-3.3,7.8-7.7,7.8H0.9z M6.3,13.4c2.6,0,4.7-1.6,4.7-5s-2.1-5-4.7-5H3.9v10H6.3z
		 M18.2,0c1,0,1.8,0.8,1.8,1.8c0,1-0.8,1.8-1.8,1.8c-1,0-1.8-0.8-1.8-1.8C16.3,0.8,17.2,0,18.2,0z M16.7,16.2V5.4h2.9v10.8H16.7z
		 M32.4,13.1c-0.6,1.9-2.3,3.4-4.9,3.4c-3,0-5.6-2.1-5.6-5.8c0-3.5,2.6-5.7,5.3-5.7c3.3,0,5.3,2.1,5.3,5.6c0,0.4,0,0.9,0,0.9h-7.7
		c0.1,1.4,1.3,2.5,2.7,2.5c1.4,0,2.1-0.7,2.5-1.7L32.4,13.1z M29.7,9.5c0-1.1-0.7-2.1-2.4-2.1c-1.5,0-2.4,1.1-2.4,2.1H29.7z
		 M55.4,16.2V5.3l-4.5,10.9h-2.5L43.9,5.3v10.8H41V0.6h4l4.7,11.3l4.6-11.3h4.1v15.6H55.4z M64.4,10l2.7-0.4
		c0.6-0.1,0.8-0.4,0.8-0.8c0-0.8-0.6-1.4-1.8-1.4c-1.3,0-2,0.8-2.1,1.8l-2.6-0.6C61.6,6.9,63.1,5,66,5c3.4,0,4.7,1.9,4.7,4.1v5.3
		c0,0.6,0.1,1.3,0.1,1.7h-2.7c-0.1-0.3-0.1-0.9-0.1-1.3c-0.6,0.9-1.6,1.6-3.2,1.6c-2.3,0-3.7-1.6-3.7-3.3
		C61.2,11.3,62.6,10.2,64.4,10z M67.9,11.8v-0.5l-2.4,0.4c-0.7,0.1-1.3,0.5-1.3,1.4c0,0.6,0.5,1.3,1.4,1.3
		C66.7,14.3,67.9,13.7,67.9,11.8z M76.6,7.1c0-1.1,0.9-1.9,2-1.9c1.1,0,2,0.9,2,2s-0.9,2-2,2c-1.1,0-1.9-0.8-2-1.9v8.9h-2.9V5.4h2.9
		V7.1z M88.6,9.9l4.4,6.3h-3.6l-2.9-4.1l-1.2,1.3v2.9h-2.9V0.3h2.9v9.1l3.7-4h3.8L88.6,9.9z M104,13.1c-0.6,1.9-2.3,3.4-4.9,3.4
		c-3,0-5.6-2.1-5.6-5.8c0-3.5,2.6-5.7,5.3-5.7c3.3,0,5.3,2.1,5.3,5.6c0,0.4,0,0.9,0,0.9h-7.7c0.1,1.4,1.3,2.5,2.7,2.5
		c1.4,0,2.1-0.7,2.5-1.7L104,13.1z M101.3,9.5c0-1.1-0.7-2.1-2.4-2.1c-1.5,0-2.4,1.1-2.4,2.1H101.3z M119.1,3.5v12.7h-3.1V3.5h-4.9
		V0.6h12.9v2.9H119.1z M128.9,16.2H126V0.3h2.9v6c0.7-0.8,1.9-1.2,2.9-1.2c2.8,0,4,1.9,4,4.3v6.8h-2.9V9.9c0-1.2-0.6-2.2-2-2.2
		c-1.2,0-2,0.9-2,2.1V16.2z M149.4,10.8c0,3.3-2.4,5.7-5.7,5.7s-5.7-2.4-5.7-5.7c0-3.3,2.4-5.7,5.7-5.7S149.4,7.4,149.4,10.8z
		 M146.5,10.8c0-2-1.3-3.1-2.8-3.1s-2.8,1-2.8,3.1c0,2,1.3,3.1,2.8,3.1S146.5,12.8,146.5,10.8z M154.7,16.2h-2.9V5.4h2.8v1.3
		c0.7-1.1,2-1.6,3.1-1.6c2.7,0,3.9,1.9,3.9,4.3v6.8h-2.9V9.9c0-1.2-0.6-2.2-2-2.2c-1.3,0-2,1-2,2.2V16.2z M174.4,13.1
		c-0.6,1.9-2.3,3.4-4.9,3.4c-3,0-5.6-2.1-5.6-5.8c0-3.5,2.6-5.7,5.3-5.7c3.3,0,5.3,2.1,5.3,5.6c0,0.4,0,0.9,0,0.9h-7.7
		c0.1,1.4,1.3,2.5,2.7,2.5c1.4,0,2.1-0.7,2.5-1.7L174.4,13.1z M171.7,9.5c0-1.1-0.7-2.1-2.4-2.1c-1.5,0-2.4,1.1-2.4,2.1H171.7z
		 M180.7,5.4h2.2V8h-2.2v4.5c0,0.9,0.4,1.3,1.3,1.3c0.4,0,0.7,0,0.9-0.1v2.4c-0.3,0.1-0.8,0.3-1.7,0.3c-2.1,0-3.4-1.3-3.4-3.3V8h-2
		V5.4h0.6c1.1,0,1.7-0.7,1.7-1.7V2.1h2.6V5.4z"/>
	<path d="M12.6,42.2l-0.2-1.8c-0.7,1.1-2.2,2.1-4.6,2.1c-4.2,0-7.8-3.1-7.8-8.1s3.8-8.1,8-8.1c4.1,0,6.4,2.4,7.1,4.8l-2.9,1
		c-0.4-1.4-1.7-3-4.2-3c-2.4,0-4.9,1.6-4.9,5.3c0,3.5,2.3,5.3,4.9,5.3c2.9,0,4-1.9,4.2-3H7.3v-2.6h7.8v8.1H12.6z M24.7,34.3
		c-0.3-0.1-0.6-0.1-0.9-0.1c-1.5,0-2.8,0.7-2.8,3.1v5h-2.9V31.4H21V33c0.7-1.4,2.2-1.7,3.1-1.7c0.2,0,0.5,0,0.7,0V34.3z M29.4,36
		l2.7-0.4c0.6-0.1,0.8-0.4,0.8-0.8c0-0.8-0.6-1.4-1.8-1.4c-1.3,0-2,0.8-2.1,1.8l-2.6-0.6c0.2-1.7,1.7-3.6,4.6-3.6
		c3.4,0,4.7,1.9,4.7,4.1v5.3c0,0.6,0.1,1.3,0.1,1.7h-2.7c-0.1-0.3-0.1-0.9-0.1-1.3c-0.6,0.9-1.6,1.6-3.2,1.6c-2.3,0-3.7-1.6-3.7-3.3
		C26.2,37.3,27.6,36.2,29.4,36z M32.9,37.8v-0.5l-2.4,0.4c-0.7,0.1-1.3,0.5-1.3,1.4c0,0.6,0.5,1.3,1.4,1.3
		C31.7,40.3,32.9,39.7,32.9,37.8z M42.2,33.9v8.3h-2.9v-8.3h-1.8v-2.5h1.8v-1.2c0-2.4,1.5-4,3.9-4c0.6,0,1.2,0.1,1.5,0.2v2.5
		c-0.2,0-0.4-0.1-0.9-0.1c-0.6,0-1.5,0.3-1.5,1.5v1.2h7.2v10.8h-2.9v-8.3H42.2z M48,26c1,0,1.8,0.8,1.8,1.8c0,1-0.8,1.8-1.8,1.8
		s-1.8-0.8-1.8-1.8C46.2,26.8,47,26,48,26z M58.7,35.9l4.4,6.3h-3.6l-2.9-4.1l-1.2,1.3v2.9h-2.9V26.3h2.9v9.1l3.7-4h3.8L58.7,35.9z
		 M80.2,38.6h-6.3l-1.3,3.6h-3.2l6-15.6h3.5l5.9,15.6h-3.3L80.2,38.6z M74.9,35.9h4.3L77.1,30L74.9,35.9z M93.3,34.3
		c-0.3-0.1-0.6-0.1-0.9-0.1c-1.5,0-2.8,0.7-2.8,3.1v5h-2.9V31.4h2.8V33c0.7-1.4,2.2-1.7,3.1-1.7c0.2,0,0.5,0,0.7,0V34.3z M97.5,36.8
		c0,2,1.3,3.1,2.8,3.1s2.2-1,2.5-1.8l2.6,0.9c-0.5,1.8-2.2,3.7-5.1,3.7c-3.2,0-5.7-2.4-5.7-5.7c0-3.3,2.5-5.7,5.6-5.7
		c2.9,0,4.6,1.8,5.1,3.7l-2.6,0.9c-0.3-0.9-0.9-1.8-2.4-1.8C98.8,33.7,97.5,34.8,97.5,36.8z M110.5,42.2h-2.9V26.3h2.9v6
		c0.7-0.8,1.9-1.2,2.9-1.2c2.8,0,4,1.9,4,4.3v6.8h-2.9v-6.3c0-1.2-0.6-2.2-2-2.2c-1.2,0-2,0.9-2,2.1V42.2z M121.8,26
		c1,0,1.8,0.8,1.8,1.8c0,1-0.8,1.8-1.8,1.8c-1,0-1.8-0.8-1.8-1.8C120,26.8,120.8,26,121.8,26z M120.4,42.2V31.4h2.9v10.8H120.4z
		 M132.4,42.2h-2.9L125,31.4h3.2l2.7,7.3l2.6-7.3h3.1L132.4,42.2z"/>
</g>
</svg>
