<?xml version="1.0" encoding="utf-8"?>
<!-- Generator: Adobe Illustrator 23.0.0, SVG Export Plug-In . SVG Version: 6.00 Build 0)  -->
<svg version="1.2" baseProfile="tiny" id="Ebene_1" xmlns="http://www.w3.org/2000/svg" xmlns:xlink="http://www.w3.org/1999/xlink"
	 x="0px" y="0px" viewBox="0 0 51.9 41.1" xml:space="preserve">
<g>
	<polygon points="15.1,14.3 1.1,16.4 11.2,26.2 8.8,40.2 21.3,33.6 33.9,40.2 31.5,26.2 41.6,16.4 27.6,14.3 21.3,1.6 	"/>
</g>
<rect x="0" y="0" fill="none" width="51.9" height="41.1"/>
<g>
	<path d="M8.2,41.1l2.5-14.7L0,16l14.7-2.1l6.6-13.4l6.6,13.4L42.7,16L32,26.4l2.5,14.7l-13.2-6.9L8.2,41.1z M21.3,33l11.9,6.2
		L30.9,26l9.6-9.4l-13.3-1.9l-5.9-12l-5.9,12l-13.3,2l9.6,9.4L9.5,39.3L21.3,33z"/>
</g>
<rect x="0" y="0" fill="none" width="51.9" height="41.1"/>
<g>
	<path d="M36.4,30.5c8.3,0,15.1-6.7,15.1-15s-6.7-15-15.1-15s-15.1,6.7-15.1,15C21.3,23.8,28.1,30.5,36.4,30.5"/>
</g>
<rect x="0" y="0" fill="none" width="51.9" height="41.1"/>
<g>
	<path fill="#FFFFFF" d="M36.4,31c-8.6,0-15.6-7-15.6-15.5S27.8,0,36.4,0s15.5,7,15.5,15.5S45,31,36.4,31z M36.4,1
		c-8,0-14.6,6.5-14.6,14.5S28.4,30,36.4,30S51,23.5,51,15.5S44.4,1,36.4,1z"/>
</g>
</svg>
