<?xml version="1.0" encoding="utf-8"?>
<!-- Generator: Adobe Illustrator 23.0.0, SVG Export Plug-In . SVG Version: 6.00 Build 0)  -->
<svg version="1.2" baseProfile="tiny" id="Ebene_1" xmlns="http://www.w3.org/2000/svg" xmlns:xlink="http://www.w3.org/1999/xlink"
	 x="0px" y="0px" viewBox="0 0 51.4 40.6" xml:space="preserve">
<polygon fill="#FFFFFF" points="15.1,13.8 1.1,15.9 11.2,25.7 8.8,39.7 21.3,33.1 33.9,39.7 31.5,25.7 41.6,15.9 27.6,13.8 
	21.3,1.1 "/>
<rect y="0" fill="none" width="51.4" height="40.6"/>
<g>
	<path d="M8.2,40.6l2.5-14.7L0,15.5l14.7-2.1L21.3,0l6.6,13.4l14.7,2.1L32,25.9l2.5,14.7l-13.2-6.9L8.2,40.6z M21.3,32.5l11.9,6.2
		l-2.3-13.2l9.6-9.4l-13.3-1.9l-5.9-12l-5.9,12l-13.3,2l9.6,9.4L9.5,38.8L21.3,32.5z"/>
</g>
<rect y="0" fill="none" width="51.4" height="40.6"/>
<g>
	<path d="M36.4,30c8.3,0,15.1-6.7,15.1-15S44.8,0,36.4,0S21.3,6.7,21.3,15S28.1,30,36.4,30"/>
</g>
</svg>
