<?xml version="1.0" encoding="utf-8"?>
<!-- Generator: Adobe Illustrator 23.0.0, SVG Export Plug-In . SVG Version: 6.00 Build 0)  -->
<svg version="1.2" baseProfile="tiny" id="Ebene_1" xmlns="http://www.w3.org/2000/svg" xmlns:xlink="http://www.w3.org/1999/xlink"
	 x="0px" y="0px" viewBox="0 0 262 26" xml:space="preserve">
<rect width="262" height="26"/>
<g>
	<path fill="#FFFFFF" d="M5,19.1c0.2,1.5,1.3,2.6,2.9,2.6c2.2,0,3.2-1.1,3.2-3.4v-1.5c-0.5,1-1.7,1.7-3.2,1.7
		c-2.8,0-4.9-2.1-4.9-5.1c0-2.9,2-5.1,4.9-5.1c1.6,0,2.7,0.6,3.3,1.7V8.4h2v9.8c0,2.7-1.3,5.3-5.3,5.3c-2.6,0-4.6-1.7-4.9-3.9
		L5,19.1z M11.2,13.4c0-2-1.2-3.4-3-3.4c-1.8,0-3.1,1.3-3.1,3.4c0,2.1,1.2,3.4,3.1,3.4C10,16.8,11.2,15.4,11.2,13.4z"/>
	<path fill="#FFFFFF" d="M25.8,16c-0.6,1.9-2.3,3.3-4.8,3.3c-2.8,0-5.3-2.1-5.3-5.7c0-3.3,2.4-5.6,5.1-5.6c3.3,0,5.1,2.2,5.1,5.5
		c0,0.3,0,0.5,0,0.7h-8c0,1.9,1.4,3.2,3.2,3.2c1.7,0,2.6-0.9,3-2.1L25.8,16z M23.7,12.6c0-1.5-1-2.7-2.9-2.7c-1.7,0-2.8,1.3-2.9,2.7
		H23.7z"/>
	<path fill="#FFFFFF" d="M29.5,15.6c0.1,1.1,1,2,2.5,2c1.2,0,1.8-0.7,1.8-1.4c0-0.7-0.5-1.2-1.4-1.4l-1.8-0.4C29,14,28,12.9,28,11.4
		c0-1.8,1.7-3.3,3.8-3.3c2.9,0,3.8,1.9,4,2.8L34,11.6c-0.1-0.6-0.5-1.8-2.2-1.8c-1.1,0-1.8,0.7-1.8,1.4c0,0.6,0.4,1.1,1.2,1.3
		l1.7,0.4c1.9,0.4,2.9,1.6,2.9,3.1c0,1.5-1.3,3.3-3.9,3.3c-2.9,0-4.1-1.9-4.3-3.1L29.5,15.6z"/>
	<path fill="#FFFFFF" d="M41.2,12.9l2.9-0.4c0.6-0.1,0.8-0.4,0.8-0.8c0-1-0.7-1.9-2.3-1.9c-1.5,0-2.3,0.9-2.4,2.1l-2-0.5
		c0.2-2,2-3.4,4.3-3.4c3.2,0,4.4,1.8,4.4,3.9v5.3c0,0.9,0.1,1.5,0.1,1.7h-2c0-0.3-0.1-0.7-0.1-1.4c-0.5,0.7-1.5,1.8-3.4,1.8
		c-2.2,0-3.5-1.5-3.5-3.2C38,14.3,39.4,13.2,41.2,12.9z M44.9,14.5V14l-3.2,0.5c-0.9,0.1-1.5,0.6-1.5,1.6c0,0.8,0.7,1.5,1.7,1.5
		C43.5,17.6,44.9,16.8,44.9,14.5z"/>
	<path fill="#FFFFFF" d="M50.1,19V8.4h2v1.4c0.7-1.2,2-1.7,3.2-1.7c1.3,0,2.6,0.6,3.2,2c0.8-1.5,2.2-2,3.5-2c1.8,0,3.7,1.3,3.7,4V19
		h-2v-6.6c0-1.4-0.7-2.4-2.2-2.4c-1.5,0-2.4,1.1-2.4,2.7V19h-2.1v-6.6c0-1.4-0.7-2.4-2.2-2.4c-1.5,0-2.5,1.1-2.5,2.7V19H50.1z"/>
	<path fill="#FFFFFF" d="M71.7,8.4H74v1.9h-2.3v5.5c0,1,0.4,1.5,1.5,1.5c0.3,0,0.6,0,0.8-0.1v1.8c-0.2,0.1-0.7,0.2-1.4,0.2
		c-1.8,0-2.9-1.1-2.9-3v-5.8h-2V8.4h0.6c1.1,0,1.6-0.7,1.6-1.6V5.1h1.9V8.4z"/>
	<path fill="#FFFFFF" d="M85.6,16c-0.6,1.9-2.3,3.3-4.8,3.3c-2.8,0-5.3-2.1-5.3-5.7c0-3.3,2.4-5.6,5.1-5.6c3.3,0,5.1,2.2,5.1,5.5
		c0,0.3,0,0.5,0,0.7h-8c0,1.9,1.4,3.2,3.2,3.2c1.7,0,2.6-0.9,3-2.1L85.6,16z M83.6,12.6c0-1.5-1-2.7-2.9-2.7c-1.7,0-2.8,1.3-2.9,2.7
		H83.6z"/>
	<path fill="#FFFFFF" d="M103.6,14.6h-6.9L95.1,19h-2.3L99,3.4h2.5l6.2,15.6h-2.3L103.6,14.6z M97.5,12.6h5.4l-2.7-7L97.5,12.6z"/>
	<path fill="#FFFFFF" d="M113.3,19.3c-2.5,0-4-1.8-4-4.2V8.4h2.1v6.4c0,1.5,0.7,2.7,2.4,2.7c1.7,0,2.5-1.1,2.5-2.7V8.4h2.1V17
		c0,0.8,0.1,1.6,0.1,2h-2c0-0.2-0.1-0.8-0.1-1.3C115.8,18.8,114.5,19.3,113.3,19.3z"/>
	<path fill="#FFFFFF" d="M122.7,15.6c0.1,1.1,1,2,2.5,2c1.2,0,1.8-0.7,1.8-1.4c0-0.7-0.5-1.2-1.4-1.4l-1.8-0.4
		c-1.7-0.4-2.6-1.5-2.6-3c0-1.8,1.7-3.3,3.8-3.3c2.9,0,3.8,1.9,4,2.8l-1.8,0.7c-0.1-0.6-0.5-1.8-2.2-1.8c-1.1,0-1.8,0.7-1.8,1.4
		c0,0.6,0.4,1.1,1.2,1.3l1.7,0.4c1.9,0.4,2.9,1.6,2.9,3.1c0,1.5-1.3,3.3-3.9,3.3c-2.9,0-4.1-1.9-4.3-3.1L122.7,15.6z"/>
	<path fill="#FFFFFF" d="M139.9,8.4l2.8,8l2.3-8h2.2L143.7,19h-2.1l-2.8-8.1L136,19h-2.2l-3.5-10.6h2.3l2.4,8l2.8-8H139.9z"/>
	<path fill="#FFFFFF" d="M151.6,12.9l2.9-0.4c0.6-0.1,0.8-0.4,0.8-0.8c0-1-0.7-1.9-2.3-1.9c-1.5,0-2.3,0.9-2.4,2.1l-2-0.5
		c0.2-2,2-3.4,4.3-3.4c3.2,0,4.4,1.8,4.4,3.9v5.3c0,0.9,0.1,1.5,0.1,1.7h-2c0-0.3-0.1-0.7-0.1-1.4c-0.5,0.7-1.5,1.8-3.4,1.8
		c-2.2,0-3.5-1.5-3.5-3.2C148.4,14.3,149.8,13.2,151.6,12.9z M155.3,14.5V14l-3.2,0.5c-0.9,0.1-1.5,0.6-1.5,1.6
		c0,0.8,0.7,1.5,1.7,1.5C154,17.6,155.3,16.8,155.3,14.5z"/>
	<path fill="#FFFFFF" d="M162.6,19h-2.1V3.1h2.1v6.6c0.8-1.1,2-1.5,3.2-1.5c2.5,0,3.8,1.8,3.8,4.2V19h-2.1v-6.4
		c0-1.5-0.6-2.7-2.5-2.7c-1.6,0-2.4,1.2-2.5,2.8V19z"/>
	<path fill="#FFFFFF" d="M172.8,19V3.1h2.1V19H172.8z"/>
	<path fill="#FFFFFF" d="M184.3,19V3.1h2.1V19H184.3z"/>
	<path fill="#FFFFFF" d="M199.8,13.7c0,3.2-2.2,5.6-5.4,5.6c-3.2,0-5.4-2.4-5.4-5.6c0-3.2,2.2-5.6,5.4-5.6
		C197.6,8.1,199.8,10.5,199.8,13.7z M192.3,4.1c0.7,0,1.3,0.6,1.3,1.3c0,0.7-0.6,1.3-1.3,1.3c-0.7,0-1.3-0.5-1.3-1.3
		C191.1,4.6,191.6,4.1,192.3,4.1z M197.7,13.7c0-2.4-1.5-3.8-3.3-3.8c-1.8,0-3.3,1.3-3.3,3.8c0,2.5,1.5,3.8,3.3,3.8
		C196.2,17.5,197.7,16.2,197.7,13.7z M196.5,4.1c0.7,0,1.3,0.6,1.3,1.3c0,0.7-0.6,1.3-1.3,1.3c-0.7,0-1.3-0.5-1.3-1.3
		C195.2,4.6,195.7,4.1,196.5,4.1z"/>
	<path fill="#FFFFFF" d="M203.4,15.6c0.1,1.1,1,2,2.5,2c1.2,0,1.8-0.7,1.8-1.4c0-0.7-0.5-1.2-1.4-1.4l-1.8-0.4
		c-1.7-0.4-2.6-1.5-2.6-3c0-1.8,1.7-3.3,3.8-3.3c2.9,0,3.8,1.9,4,2.8l-1.8,0.7c-0.1-0.6-0.5-1.8-2.2-1.8c-1.1,0-1.8,0.7-1.8,1.4
		c0,0.6,0.4,1.1,1.2,1.3l1.7,0.4c1.9,0.4,2.9,1.6,2.9,3.1c0,1.5-1.3,3.3-3.9,3.3c-2.9,0-4.1-1.9-4.3-3.1L203.4,15.6z"/>
	<path fill="#FFFFFF" d="M213.7,13.7c0,2.4,1.5,3.7,3.2,3.7c2,0,2.7-1.3,2.9-2.2l1.8,0.8c-0.5,1.5-2,3.3-4.8,3.3
		c-3.1,0-5.3-2.4-5.3-5.6c0-3.3,2.3-5.6,5.3-5.6c2.8,0,4.3,1.8,4.7,3.4l-1.9,0.8c-0.3-1-1-2.2-2.8-2.2
		C215.2,10,213.7,11.2,213.7,13.7z"/>
	<path fill="#FFFFFF" d="M226.1,19h-2.1V3.1h2.1v6.6c0.8-1.1,2-1.5,3.2-1.5c2.5,0,3.8,1.8,3.8,4.2V19h-2.1v-6.4
		c0-1.5-0.6-2.7-2.5-2.7c-1.6,0-2.4,1.2-2.5,2.8V19z"/>
	<path fill="#FFFFFF" d="M245.7,16c-0.6,1.9-2.3,3.3-4.8,3.3c-2.8,0-5.3-2.1-5.3-5.7c0-3.3,2.4-5.6,5.1-5.6c3.3,0,5.1,2.2,5.1,5.5
		c0,0.3,0,0.5,0,0.7h-8c0,1.9,1.4,3.2,3.2,3.2c1.7,0,2.6-0.9,3-2.1L245.7,16z M243.6,12.6c0-1.5-1-2.7-2.9-2.7
		c-1.7,0-2.8,1.3-2.9,2.7H243.6z"/>
	<path fill="#FFFFFF" d="M250.5,19h-2.1V8.4h2v1.5c0.8-1.3,2-1.8,3.3-1.8c2.5,0,3.8,1.8,3.8,4.2V19h-2.1v-6.4c0-1.5-0.6-2.7-2.5-2.7
		c-1.6,0-2.5,1.3-2.5,2.9V19z"/>
</g>
<g>
	<rect fill="none" width="262" height="26"/>
</g>
</svg>
