<?xml version="1.0" encoding="utf-8"?>
<!-- Generator: Adobe Illustrator 23.0.0, SVG Export Plug-In . SVG Version: 6.00 Build 0)  -->
<svg version="1.2" baseProfile="tiny" id="Ebene_1" xmlns="http://www.w3.org/2000/svg" xmlns:xlink="http://www.w3.org/1999/xlink"
	 x="0px" y="0px" viewBox="0 0 32.5 42.5" xml:space="preserve">
<g>
	<g>
		<path d="M16.3,36.5c8.4,0,15.2-6.8,15.2-15.2C31.5,12.8,24.7,6,16.3,6C7.8,6,1,12.8,1,21.2C1,29.7,7.8,36.5,16.3,36.5"/>
	</g>
	<g>
		<path d="M16.2,37.5C7.3,37.5,0,30.2,0,21.2S7.3,5,16.2,5s16.2,7.3,16.2,16.2S25.2,37.5,16.2,37.5z M16.2,7C8.4,7,2,13.4,2,21.2
			s6.4,14.3,14.2,14.3s14.2-6.4,14.2-14.3S24.1,7,16.2,7z"/>
	</g>
</g>
</svg>
