<?xml version="1.0" encoding="utf-8"?>
<!-- Generator: Adobe Illustrator 23.0.0, SVG Export Plug-In . SVG Version: 6.00 Build 0)  -->
<svg version="1.2" baseProfile="tiny" id="Ebene_1" xmlns="http://www.w3.org/2000/svg" xmlns:xlink="http://www.w3.org/1999/xlink"
	 x="0px" y="0px" viewBox="0 0 182.9 42.5" xml:space="preserve">
<g>
	<g>
		<path d="M0,16.2V0.6h5.6c4.4,0,7.7,2.9,7.7,7.8s-3.3,7.8-7.7,7.8H0z M5.5,13.4c2.6,0,4.7-1.6,4.7-5s-2.1-5-4.7-5H3v10H5.5z
			 M17.3,0c1,0,1.8,0.8,1.8,1.8c0,1-0.8,1.8-1.8,1.8c-1,0-1.8-0.8-1.8-1.8C15.5,0.8,16.3,0,17.3,0z M15.8,16.2V5.4h2.9v10.8H15.8z
			 M31.5,13.1c-0.6,1.9-2.3,3.4-4.9,3.4c-3,0-5.6-2.1-5.6-5.8C21,7.3,23.6,5,26.4,5c3.3,0,5.3,2.1,5.3,5.6c0,0.4,0,0.9,0,0.9h-7.7
			C24,13,25.2,14,26.6,14c1.4,0,2.1-0.7,2.5-1.7L31.5,13.1z M28.8,9.5c0-1.1-0.7-2.1-2.4-2.1c-1.5,0-2.4,1.1-2.4,2.1H28.8z
			 M54.5,16.2V5.3L50,16.2h-2.5L43,5.3v10.8h-2.9V0.6h4l4.7,11.3l4.6-11.3h4.1v15.6H54.5z M63.5,10l2.7-0.4C66.8,9.5,67,9.2,67,8.8
			c0-0.8-0.6-1.4-1.8-1.4c-1.3,0-2,0.8-2.1,1.8l-2.6-0.6C60.7,6.9,62.3,5,65.2,5c3.4,0,4.7,1.9,4.7,4.1v5.3c0,0.6,0.1,1.3,0.1,1.7
			h-2.7c-0.1-0.3-0.1-0.9-0.1-1.3c-0.6,0.9-1.6,1.6-3.2,1.6c-2.3,0-3.7-1.6-3.7-3.3C60.3,11.3,61.7,10.2,63.5,10z M67,11.8v-0.5
			l-2.4,0.4c-0.7,0.1-1.3,0.5-1.3,1.4c0,0.6,0.5,1.3,1.4,1.3C65.9,14.3,67,13.7,67,11.8z M75.8,7.1c0-1.1,0.9-1.9,2-1.9
			c1.1,0,2,0.9,2,2s-0.9,2-2,2c-1.1,0-1.9-0.8-2-1.9v8.9h-2.9V5.4h2.9V7.1z M87.7,9.9l4.4,6.3h-3.6l-2.9-4.1l-1.2,1.3v2.9h-2.9V0.3
			h2.9v9.1l3.7-4H92L87.7,9.9z M103.1,13.1c-0.6,1.9-2.3,3.4-4.9,3.4c-3,0-5.6-2.1-5.6-5.8c0-3.5,2.6-5.7,5.3-5.7
			c3.3,0,5.3,2.1,5.3,5.6c0,0.4,0,0.9,0,0.9h-7.7c0.1,1.4,1.3,2.5,2.7,2.5c1.4,0,2.1-0.7,2.5-1.7L103.1,13.1z M100.4,9.5
			c0-1.1-0.7-2.1-2.4-2.1c-1.5,0-2.4,1.1-2.4,2.1H100.4z M118.3,3.5v12.7h-3.1V3.5h-4.9V0.6h12.9v2.9H118.3z M128,16.2h-2.9V0.3h2.9
			v6c0.7-0.8,1.9-1.2,2.9-1.2c2.8,0,4,1.9,4,4.3v6.8H132V9.9c0-1.2-0.6-2.2-2-2.2c-1.2,0-2,0.9-2,2.1V16.2z M148.6,10.8
			c0,3.3-2.4,5.7-5.7,5.7s-5.7-2.4-5.7-5.7c0-3.3,2.4-5.7,5.7-5.7S148.6,7.4,148.6,10.8z M145.6,10.8c0-2-1.3-3.1-2.8-3.1
			s-2.8,1-2.8,3.1c0,2,1.3,3.1,2.8,3.1S145.6,12.8,145.6,10.8z M153.8,16.2h-2.9V5.4h2.8v1.3c0.7-1.1,2-1.6,3.1-1.6
			c2.7,0,3.9,1.9,3.9,4.3v6.8h-2.9V9.9c0-1.2-0.6-2.2-2-2.2c-1.3,0-2,1-2,2.2V16.2z M173.6,13.1c-0.6,1.9-2.3,3.4-4.9,3.4
			c-3,0-5.6-2.1-5.6-5.8c0-3.5,2.6-5.7,5.3-5.7c3.3,0,5.3,2.1,5.3,5.6c0,0.4,0,0.9,0,0.9h-7.7c0.1,1.4,1.3,2.5,2.7,2.5
			c1.4,0,2.1-0.7,2.5-1.7L173.6,13.1z M170.8,9.5c0-1.1-0.7-2.1-2.4-2.1c-1.5,0-2.4,1.1-2.4,2.1H170.8z M179.8,5.4h2.2V8h-2.2v4.5
			c0,0.9,0.4,1.3,1.3,1.3c0.4,0,0.7,0,0.9-0.1v2.4c-0.3,0.1-0.8,0.3-1.7,0.3c-2.1,0-3.4-1.3-3.4-3.3V8h-2V5.4h0.6
			c1.1,0,1.7-0.7,1.7-1.7V2.1h2.6V5.4z"/>
	</g>
	<g>
		<g>
			<path d="M14.4,42.2V31.3L9.9,42.2H7.4L2.9,31.3v10.8H0V26.6h4l4.7,11.3l4.6-11.3h4.1v15.6H14.4z"/>
			<path d="M31.4,36.8c0,3.3-2.4,5.7-5.7,5.7s-5.7-2.4-5.7-5.7c0-3.3,2.4-5.7,5.7-5.7S31.4,33.4,31.4,36.8z M23.4,26.8
				c0.9,0,1.6,0.7,1.6,1.6c0,0.9-0.7,1.5-1.6,1.5c-0.9,0-1.5-0.7-1.5-1.5C21.9,27.5,22.6,26.8,23.4,26.8z M28.5,36.8
				c0-2-1.3-3.1-2.8-3.1s-2.8,1-2.8,3.1c0,2,1.3,3.1,2.8,3.1S28.5,38.8,28.5,36.8z M28.1,26.8c0.9,0,1.6,0.7,1.6,1.6
				c0,0.9-0.7,1.5-1.6,1.5c-0.9,0-1.5-0.7-1.5-1.5C26.5,27.5,27.2,26.8,28.1,26.8z"/>
			<path d="M33.8,42.2V26.3h2.9v6.3c0.5-0.8,1.7-1.5,3.3-1.5c3.2,0,5,2.4,5,5.7c0,3.3-2,5.7-5.1,5.7c-1.5,0-2.6-0.7-3.2-1.6v1.3
				H33.8z M39.3,33.7c-1.5,0-2.7,1.1-2.7,3.1c0,2,1.2,3.1,2.7,3.1c1.5,0,2.7-1.1,2.7-3.1S40.8,33.7,39.3,33.7z"/>
			<path d="M57.1,39.1c-0.6,1.9-2.3,3.4-4.9,3.4c-3,0-5.6-2.1-5.6-5.8c0-3.5,2.6-5.7,5.3-5.7c3.3,0,5.3,2.1,5.3,5.6
				c0,0.4,0,0.9,0,0.9h-7.7c0.1,1.4,1.3,2.5,2.7,2.5c1.4,0,2.1-0.7,2.5-1.6L57.1,39.1z M54.4,35.6c0-1.1-0.7-2.1-2.4-2.1
				c-1.5,0-2.4,1.1-2.4,2.1H54.4z"/>
			<path d="M59.7,42.2V26.3h2.9v15.9H59.7z"/>
			<path d="M81.1,38.6h-6.3l-1.3,3.6h-3.2l6-15.6h3.5l5.9,15.6h-3.3L81.1,38.6z M75.8,35.9h4.3L77.9,30L75.8,35.9z"/>
			<path d="M94.1,34.3c-0.3-0.1-0.6-0.1-0.9-0.1c-1.5,0-2.8,0.7-2.8,3.1v5h-2.9V31.4h2.8V33c0.7-1.4,2.2-1.7,3.1-1.7
				c0.2,0,0.5,0,0.7,0V34.3z"/>
			<path d="M98.3,36.8c0,2,1.3,3.1,2.8,3.1c1.5,0,2.2-1,2.5-1.8l2.6,0.9c-0.5,1.8-2.2,3.7-5.1,3.7c-3.2,0-5.7-2.4-5.7-5.7
				c0-3.3,2.5-5.7,5.6-5.7c2.9,0,4.6,1.8,5.1,3.7l-2.6,0.9c-0.3-0.9-0.9-1.8-2.4-1.8C99.6,33.7,98.3,34.8,98.3,36.8z"/>
			<path d="M111.3,42.2h-2.9V26.3h2.9v6c0.7-0.8,1.9-1.2,2.9-1.2c2.8,0,4,1.9,4,4.3v6.8h-2.9v-6.3c0-1.2-0.6-2.2-2-2.2
				c-1.2,0-2,0.9-2,2.1V42.2z"/>
			<path d="M122.6,26c1,0,1.8,0.8,1.8,1.8c0,1-0.8,1.8-1.8,1.8c-1,0-1.8-0.8-1.8-1.8C120.8,26.8,121.7,26,122.6,26z M121.2,42.2
				V31.4h2.9v10.8H121.2z"/>
			<path d="M133.3,42.2h-2.9l-4.4-10.8h3.2l2.7,7.3l2.6-7.3h3.1L133.3,42.2z"/>
		</g>
	</g>
</g>
</svg>
