<?xml version="1.0" encoding="utf-8"?>
<!-- Generator: Adobe Illustrator 23.0.0, SVG Export Plug-In . SVG Version: 6.00 Build 0)  -->
<svg version="1.2" baseProfile="tiny" id="Ebene_1" xmlns="http://www.w3.org/2000/svg" xmlns:xlink="http://www.w3.org/1999/xlink"
	 x="0px" y="0px" viewBox="0 0 94.3 16.5" xml:space="preserve">
<g>
	<path d="M9.2,4.8C9,3.6,8,2.1,5.9,2.1c-1.8,0-3,1.1-3,2.6c0,1.1,0.7,2,2,2.3l2.3,0.5c2.6,0.6,4,2.2,4,4.4c0,2.4-2.1,4.6-5.4,4.6
		c-3.8,0-5.5-2.4-5.8-4.6l2.1-0.7c0.2,1.7,1.4,3.3,3.7,3.3C8,14.5,9,13.4,9,12c0-1.1-0.8-2.1-2.3-2.4L4.5,9.1
		C2.2,8.6,0.7,7.2,0.7,4.8c0-2.4,2.3-4.6,5.1-4.6c3.5,0,4.9,2.2,5.3,3.9L9.2,4.8z M17.8,16.5c-2.5,0-4-1.8-4-4.2V5.5h2.1v6.4
		c0,1.5,0.7,2.7,2.4,2.7c1.7,0,2.5-1.1,2.5-2.7V5.5h2.1v8.6c0,0.8,0.1,1.6,0.1,2h-2c0-0.2-0.1-0.8-0.1-1.3
		C20.4,16,19.1,16.5,17.8,16.5z M27.6,10.8c0,2.4,1.5,3.7,3.2,3.7c2,0,2.7-1.3,2.9-2.2l1.8,0.8c-0.5,1.5-2,3.3-4.8,3.3
		c-3.1,0-5.3-2.4-5.3-5.6c0-3.3,2.3-5.6,5.3-5.6c2.8,0,4.3,1.8,4.7,3.4l-1.9,0.8c-0.3-1-1-2.2-2.8-2.2C29.1,7.1,27.6,8.4,27.6,10.8z
		 M40.1,16.1H38V0.2h2.1v6.6c0.8-1.1,2-1.5,3.2-1.5c2.5,0,3.8,1.8,3.8,4.2v6.7H45V9.8c0-1.5-0.6-2.7-2.5-2.7c-1.6,0-2.4,1.2-2.5,2.8
		V16.1z M55.7,0.4v1.8c-0.1,0-0.4-0.1-0.9-0.1c-0.7,0-1.7,0.3-1.7,1.8v1.7h7v10.6h-2V7.4h-5v8.7H51V7.4h-2V5.5h2V3.8
		c0-2.4,1.6-3.6,3.5-3.6C55.1,0.1,55.6,0.3,55.7,0.4z M59.1,0c0.8,0,1.5,0.7,1.5,1.5c0,0.8-0.7,1.5-1.5,1.5c-0.8,0-1.5-0.7-1.5-1.5
		C57.6,0.7,58.2,0,59.1,0z M63.5,16.1V0.2h2.1v15.9H63.5z M71.7,5.5H74v1.9h-2.3v5.5c0,1,0.4,1.5,1.5,1.5c0.3,0,0.6,0,0.8-0.1V16
		c-0.2,0.1-0.7,0.2-1.4,0.2c-1.8,0-2.9-1.1-2.9-3V7.4h-2V5.5h0.6c1.1,0,1.6-0.7,1.6-1.6V2.2h1.9V5.5z M85.7,13.1
		c-0.6,1.9-2.3,3.3-4.8,3.3c-2.8,0-5.3-2.1-5.3-5.7c0-3.3,2.4-5.6,5.1-5.6c3.3,0,5.1,2.2,5.1,5.5c0,0.3,0,0.5,0,0.7h-8
		c0,1.9,1.4,3.2,3.2,3.2c1.7,0,2.6-0.9,3-2.1L85.7,13.1z M83.6,9.7c0-1.5-1-2.7-2.9-2.7c-1.7,0-2.8,1.3-2.9,2.7H83.6z M94.3,7.6
		c-0.3,0-0.6-0.1-0.9-0.1c-1.7,0-2.9,0.9-2.9,3.3v5.3h-2.1V5.5h2v1.8c0.8-1.6,2.1-2,3.2-2c0.3,0,0.6,0,0.7,0.1V7.6z"/>
</g>
</svg>
